<?xml version="1.0" encoding="UTF-8"?>
<svg version="1.1" xmlns="http://www.w3.org/2000/svg" width="1000" height="1000">
<path d="M0 0 C1.87824463 -0.01052147 1.87824463 -0.01052147 3.79443359 -0.02125549 C7.81351653 -0.03866658 11.83244995 -0.04568939 15.8515625 -0.046875 C16.53603706 -0.04731686 17.22051163 -0.04775871 17.92572784 -0.04821396 C38.26281397 -0.05510132 58.31153058 0.23128349 78.4765625 3.203125 C79.71712402 3.37473145 80.95768555 3.54633789 82.23583984 3.72314453 C143.20912845 12.24645621 202.60191161 32.53775495 255.4765625 64.203125 C256.38229004 64.74324219 257.28801758 65.28335938 258.22119141 65.83984375 C284.30943756 81.47700571 308.63094043 99.58139598 331.1171875 120.0625 C332.61442416 121.42092002 334.12360658 122.7663792 335.6484375 124.09375 C341.7236175 129.41476972 347.44576749 135.06537913 353.1640625 140.765625 C353.97222412 141.56919434 354.78038574 142.37276367 355.61303711 143.20068359 C360.44068448 148.04073626 365.03452396 153.00873377 369.4765625 158.203125 C370.42594453 159.28615558 371.37641294 160.36823511 372.328125 161.44921875 C380.1291222 170.39247004 387.39446536 179.68327335 394.4765625 189.203125 C395.01958008 189.93047852 395.56259766 190.65783203 396.12207031 191.40722656 C409.33186207 209.16941238 420.72360755 227.87023225 431.4765625 247.203125 C431.87439941 247.91082031 432.27223633 248.61851562 432.68212891 249.34765625 C460.28453014 298.64193154 476.76164439 355.1269204 483.7265625 411.015625 C483.85118866 412.01456787 483.85118866 412.01456787 483.97833252 413.03369141 C485.60934054 426.26539256 486.62951987 439.38708664 486.6796875 452.7265625 C486.68670181 453.9787709 486.69371613 455.23097931 486.70094299 456.52113342 C486.71835341 460.54017058 486.72537678 464.55905823 486.7265625 468.578125 C486.72700436 469.26245228 486.72744621 469.94677956 486.72790146 470.65184402 C486.73478758 490.97979018 486.50282601 511.05242456 483.4765625 531.203125 C483.29963867 532.42725098 483.12271484 533.65137695 482.94042969 534.91259766 C476.27351619 580.20500565 463.82842618 623.86252534 444.71679688 665.49658203 C443.61502067 667.90097001 442.53426848 670.31329689 441.4609375 672.73046875 C435.9438887 684.99313472 429.25738949 696.60358265 422.4765625 708.203125 C422.0031543 709.01458984 421.52974609 709.82605469 421.04199219 710.66210938 C405.61938174 736.92613669 387.11278637 761.34158901 366.6171875 783.84375 C365.25876748 785.34098666 363.9133083 786.85016908 362.5859375 788.375 C357.26491778 794.45018 351.61430837 800.17232999 345.9140625 805.890625 C345.11049316 806.69878662 344.30692383 807.50694824 343.47900391 808.33959961 C338.63895124 813.16724698 333.67095373 817.76108646 328.4765625 822.203125 C327.39353192 823.15250703 326.31145239 824.10297544 325.23046875 825.0546875 C316.28721746 832.8556847 306.99641415 840.12102786 297.4765625 847.203125 C296.74920898 847.74614258 296.02185547 848.28916016 295.27246094 848.84863281 C277.51597112 862.05418843 258.82368343 873.486483 239.4765625 884.203125 C238.3019043 884.85643799 238.3019043 884.85643799 237.10351562 885.52294922 C188.24695438 912.51443516 133.57181521 928.5818178 78.4765625 936.203125 C77.35588379 936.36828613 76.23520508 936.53344727 75.08056641 936.70361328 C36.57759543 942.20728999 -6.07546047 941.97730194 -44.5234375 936.203125 C-45.74756348 936.02620117 -46.97168945 935.84927734 -48.23291016 935.66699219 C-93.52531815 929.00007869 -137.18283784 916.55498868 -178.81689453 897.44335938 C-181.22128251 896.34158317 -183.63360939 895.26083098 -186.05078125 894.1875 C-226.66133719 875.91966044 -264.32210194 849.25712809 -297.1640625 819.34375 C-298.66129916 817.98532998 -300.17048158 816.6398708 -301.6953125 815.3125 C-307.7704925 809.99148028 -313.49264249 804.34087087 -319.2109375 798.640625 C-320.01909912 797.83705566 -320.82726074 797.03348633 -321.65991211 796.20556641 C-326.48755948 791.36551374 -331.08139896 786.39751623 -335.5234375 781.203125 C-336.47281953 780.12009442 -337.42328794 779.03801489 -338.375 777.95703125 C-346.1759972 769.01377996 -353.44134036 759.72297665 -360.5234375 750.203125 C-361.06645508 749.47577148 -361.60947266 748.74841797 -362.16894531 747.99902344 C-375.37873707 730.23683762 -386.77048255 711.53601775 -397.5234375 692.203125 C-397.92127441 691.49542969 -398.31911133 690.78773438 -398.72900391 690.05859375 C-426.33140514 640.76431846 -442.80851939 584.2793296 -449.7734375 528.390625 C-449.85652161 527.72466309 -449.93960571 527.05870117 -450.02520752 526.37255859 C-451.65621554 513.14085744 -452.67639487 500.01916336 -452.7265625 486.6796875 C-452.73708397 484.80137489 -452.73708397 484.80137489 -452.74781799 482.88511658 C-452.76522841 478.86607942 -452.77225178 474.84719177 -452.7734375 470.828125 C-452.77387936 470.14379772 -452.77432121 469.45947044 -452.77477646 468.75440598 C-452.78166258 448.42645982 -452.54970101 428.35382544 -449.5234375 408.203125 C-449.34651367 406.97899902 -449.16958984 405.75487305 -448.98730469 404.49365234 C-442.32010173 359.19927782 -429.80126287 315.61497556 -410.77978516 273.95800781 C-409.67371442 271.53264788 -408.58585822 269.10023847 -407.50390625 266.6640625 C-389.22687408 226.05905115 -362.57706606 188.40404936 -332.6640625 155.5625 C-331.30564248 154.06526334 -329.9601833 152.55608092 -328.6328125 151.03125 C-323.31179278 144.95607 -317.66118337 139.23392001 -311.9609375 133.515625 C-311.15736816 132.70746338 -310.35379883 131.89930176 -309.52587891 131.06665039 C-304.6851905 126.23836891 -299.70841929 121.65660432 -294.5234375 117.203125 C-293.40158301 116.20543974 -292.28172543 115.20550365 -291.1640625 114.203125 C-281.07664268 105.23900274 -270.42466298 97.14778943 -259.5234375 89.203125 C-258.42878174 88.40044189 -258.42878174 88.40044189 -257.31201172 87.58154297 C-240.85020469 75.54926416 -223.47696747 64.98610166 -205.54345703 55.30126953 C-203.69190775 54.29471059 -201.85426353 53.2672631 -200.01953125 52.23046875 C-151.77427683 25.50073166 -96.25190112 9.750086 -41.7109375 2.953125 C-41.04497559 2.87004089 -40.37901367 2.78695679 -39.69287109 2.70135498 C-26.46116989 1.07034695 -13.33947592 0.05016785 0 0 Z " fill="#1A202C" transform="translate(481.5234375,29.796875)"/>
<path d="M0 0 C92.4 0 184.8 0 280 0 C280 139.26 280 278.52 280 422 C187.6 422 95.2 422 0 422 C0 282.74 0 143.48 0 0 Z " fill="#1A202C" transform="translate(360,268)"/>
<path d="M0 0 C1.87824463 -0.01052147 1.87824463 -0.01052147 3.79443359 -0.02125549 C7.81351653 -0.03866658 11.83244995 -0.04568939 15.8515625 -0.046875 C16.53603706 -0.04731686 17.22051163 -0.04775871 17.92572784 -0.04821396 C38.26281397 -0.05510132 58.31153058 0.23128349 78.4765625 3.203125 C79.71712402 3.37473145 80.95768555 3.54633789 82.23583984 3.72314453 C143.20912845 12.24645621 202.60191161 32.53775495 255.4765625 64.203125 C256.38229004 64.74324219 257.28801758 65.28335938 258.22119141 65.83984375 C284.30943756 81.47700571 308.63094043 99.58139598 331.1171875 120.0625 C332.61442416 121.42092002 334.12360658 122.7663792 335.6484375 124.09375 C341.7236175 129.41476972 347.44576749 135.06537913 353.1640625 140.765625 C353.97222412 141.56919434 354.78038574 142.37276367 355.61303711 143.20068359 C360.44068448 148.04073626 365.03452396 153.00873377 369.4765625 158.203125 C370.42594453 159.28615558 371.37641294 160.36823511 372.328125 161.44921875 C380.1291222 170.39247004 387.39446536 179.68327335 394.4765625 189.203125 C395.01958008 189.93047852 395.56259766 190.65783203 396.12207031 191.40722656 C409.33186207 209.16941238 420.72360755 227.87023225 431.4765625 247.203125 C431.87439941 247.91082031 432.27223633 248.61851562 432.68212891 249.34765625 C460.28453014 298.64193154 476.76164439 355.1269204 483.7265625 411.015625 C483.85118866 412.01456787 483.85118866 412.01456787 483.97833252 413.03369141 C485.60934054 426.26539256 486.62951987 439.38708664 486.6796875 452.7265625 C486.68670181 453.9787709 486.69371613 455.23097931 486.70094299 456.52113342 C486.71835341 460.54017058 486.72537678 464.55905823 486.7265625 468.578125 C486.72700436 469.26245228 486.72744621 469.94677956 486.72790146 470.65184402 C486.73478758 490.97979018 486.50282601 511.05242456 483.4765625 531.203125 C483.29963867 532.42725098 483.12271484 533.65137695 482.94042969 534.91259766 C476.27351619 580.20500565 463.82842618 623.86252534 444.71679688 665.49658203 C443.61502067 667.90097001 442.53426848 670.31329689 441.4609375 672.73046875 C435.9438887 684.99313472 429.25738949 696.60358265 422.4765625 708.203125 C422.0031543 709.01458984 421.52974609 709.82605469 421.04199219 710.66210938 C405.61938174 736.92613669 387.11278637 761.34158901 366.6171875 783.84375 C365.25876748 785.34098666 363.9133083 786.85016908 362.5859375 788.375 C357.26491778 794.45018 351.61430837 800.17232999 345.9140625 805.890625 C345.11049316 806.69878662 344.30692383 807.50694824 343.47900391 808.33959961 C338.63895124 813.16724698 333.67095373 817.76108646 328.4765625 822.203125 C327.39353192 823.15250703 326.31145239 824.10297544 325.23046875 825.0546875 C316.28721746 832.8556847 306.99641415 840.12102786 297.4765625 847.203125 C296.74920898 847.74614258 296.02185547 848.28916016 295.27246094 848.84863281 C277.51597112 862.05418843 258.82368343 873.486483 239.4765625 884.203125 C238.3019043 884.85643799 238.3019043 884.85643799 237.10351562 885.52294922 C188.24695438 912.51443516 133.57181521 928.5818178 78.4765625 936.203125 C77.35588379 936.36828613 76.23520508 936.53344727 75.08056641 936.70361328 C36.57759543 942.20728999 -6.07546047 941.97730194 -44.5234375 936.203125 C-45.74756348 936.02620117 -46.97168945 935.84927734 -48.23291016 935.66699219 C-93.52531815 929.00007869 -137.18283784 916.55498868 -178.81689453 897.44335938 C-181.22128251 896.34158317 -183.63360939 895.26083098 -186.05078125 894.1875 C-226.66133719 875.91966044 -264.32210194 849.25712809 -297.1640625 819.34375 C-298.66129916 817.98532998 -300.17048158 816.6398708 -301.6953125 815.3125 C-307.7704925 809.99148028 -313.49264249 804.34087087 -319.2109375 798.640625 C-320.01909912 797.83705566 -320.82726074 797.03348633 -321.65991211 796.20556641 C-326.48755948 791.36551374 -331.08139896 786.39751623 -335.5234375 781.203125 C-336.47281953 780.12009442 -337.42328794 779.03801489 -338.375 777.95703125 C-346.1759972 769.01377996 -353.44134036 759.72297665 -360.5234375 750.203125 C-361.06645508 749.47577148 -361.60947266 748.74841797 -362.16894531 747.99902344 C-375.37873707 730.23683762 -386.77048255 711.53601775 -397.5234375 692.203125 C-397.92127441 691.49542969 -398.31911133 690.78773438 -398.72900391 690.05859375 C-426.33140514 640.76431846 -442.80851939 584.2793296 -449.7734375 528.390625 C-449.85652161 527.72466309 -449.93960571 527.05870117 -450.02520752 526.37255859 C-451.65621554 513.14085744 -452.67639487 500.01916336 -452.7265625 486.6796875 C-452.73708397 484.80137489 -452.73708397 484.80137489 -452.74781799 482.88511658 C-452.76522841 478.86607942 -452.77225178 474.84719177 -452.7734375 470.828125 C-452.77387936 470.14379772 -452.77432121 469.45947044 -452.77477646 468.75440598 C-452.78166258 448.42645982 -452.54970101 428.35382544 -449.5234375 408.203125 C-449.34651367 406.97899902 -449.16958984 405.75487305 -448.98730469 404.49365234 C-442.32010173 359.19927782 -429.80126287 315.61497556 -410.77978516 273.95800781 C-409.67371442 271.53264788 -408.58585822 269.10023847 -407.50390625 266.6640625 C-389.22687408 226.05905115 -362.57706606 188.40404936 -332.6640625 155.5625 C-331.30564248 154.06526334 -329.9601833 152.55608092 -328.6328125 151.03125 C-323.31179278 144.95607 -317.66118337 139.23392001 -311.9609375 133.515625 C-311.15736816 132.70746338 -310.35379883 131.89930176 -309.52587891 131.06665039 C-304.6851905 126.23836891 -299.70841929 121.65660432 -294.5234375 117.203125 C-293.40158301 116.20543974 -292.28172543 115.20550365 -291.1640625 114.203125 C-281.07664268 105.23900274 -270.42466298 97.14778943 -259.5234375 89.203125 C-258.42878174 88.40044189 -258.42878174 88.40044189 -257.31201172 87.58154297 C-240.85020469 75.54926416 -223.47696747 64.98610166 -205.54345703 55.30126953 C-203.69190775 54.29471059 -201.85426353 53.2672631 -200.01953125 52.23046875 C-151.77427683 25.50073166 -96.25190112 9.750086 -41.7109375 2.953125 C-41.04497559 2.87004089 -40.37901367 2.78695679 -39.69287109 2.70135498 C-26.46116989 1.07034695 -13.33947592 0.05016785 0 0 Z M-32.5234375 40.203125 C-33.6160791 40.32671387 -34.7087207 40.45030273 -35.83447266 40.57763672 C-82.7927647 45.95006647 -127.97705648 59.74349843 -170.5234375 80.203125 C-171.37421875 80.60466797 -172.225 81.00621094 -173.1015625 81.41992188 C-206.31707656 97.11373001 -236.82543986 118.16188548 -264.5234375 142.203125 C-265.235 142.81414062 -265.9465625 143.42515625 -266.6796875 144.0546875 C-268.64395597 145.75329671 -270.58700282 147.47285066 -272.5234375 149.203125 C-273.36648438 149.95335937 -274.20953125 150.70359375 -275.078125 151.4765625 C-281.32963376 157.11816797 -287.3708413 162.94690907 -293.3359375 168.890625 C-294.39349243 169.9412915 -294.39349243 169.9412915 -295.47241211 171.01318359 C-300.02633552 175.58053091 -304.32679249 180.30714727 -308.5234375 185.203125 C-309.3690625 186.16734375 -310.2146875 187.1315625 -311.0859375 188.125 C-335.7145118 216.70046121 -355.5483263 248.61590787 -372.5234375 282.203125 C-372.89710449 282.93966309 -373.27077148 283.67620117 -373.65576172 284.43505859 C-392.11641076 321.1707781 -404.63122595 362.20854188 -410.0703125 402.97021484 C-410.53780351 406.30562215 -411.09009036 409.62008959 -411.6484375 412.94140625 C-414.51218727 431.27601624 -414.92804085 449.5369413 -414.95689392 468.07078552 C-414.96086152 470.04040535 -414.97006472 472.01001241 -414.97937012 473.97961426 C-415.03477133 491.91761205 -413.93622632 509.42852521 -411.5234375 527.203125 C-411.41657623 528.00574768 -411.30971497 528.80837036 -411.19961548 529.63531494 C-410.6051476 534.04499958 -409.934173 538.43786189 -409.2109375 542.828125 C-408.89564087 544.75350098 -408.89564087 544.75350098 -408.57397461 546.71777344 C-405.40890601 565.61976793 -400.73211818 584.07932855 -394.5234375 602.203125 C-394.17297363 603.23775879 -393.82250977 604.27239258 -393.46142578 605.33837891 C-387.66231269 622.36237417 -381.13201565 638.90665802 -373.5234375 655.203125 C-373.12721191 656.05745117 -372.73098633 656.91177734 -372.32275391 657.79199219 C-355.38178875 693.96614612 -332.16402021 728.08209019 -305.078125 757.40234375 C-303.11526819 759.5542831 -301.20690388 761.72991308 -299.30859375 763.9375 C-295.10661604 768.75377871 -290.61468893 773.25845619 -286.0859375 777.765625 C-285.27833984 778.57708984 -284.47074219 779.38855469 -283.63867188 780.22460938 C-278.76243697 785.09298572 -273.75634409 789.72286328 -268.5234375 794.203125 C-267.47514819 795.12860881 -266.42819558 796.05560969 -265.3828125 796.984375 C-204.54098995 850.46267681 -126.77912477 886.30976718 -46.5234375 897.203125 C-44.49214835 897.49191226 -42.46089841 897.78097548 -40.4296875 898.0703125 C-38.4403714 898.34568742 -36.45079608 898.61919774 -34.4609375 898.890625 C-33.5939624 899.01026611 -32.7269873 899.12990723 -31.83374023 899.25317383 C-16.66555947 901.22071416 -1.48885084 901.38957518 13.7824707 901.38842773 C17.00941354 901.390605 20.23600824 901.40880622 23.46289062 901.42773438 C43.33787229 901.48298135 62.89636302 899.86443759 82.5390625 896.890625 C83.25615387 896.78396515 83.97324524 896.6773053 84.71206665 896.56741333 C97.11917009 894.71255008 109.32013648 892.32198251 121.4765625 889.203125 C122.17185059 889.0292627 122.86713867 888.85540039 123.58349609 888.67626953 C150.79412547 881.86197803 177.06236557 872.01165469 202.4765625 860.203125 C203.33523926 859.80544922 204.19391602 859.40777344 205.07861328 858.99804688 C233.87744111 845.50876037 260.5566516 827.86519394 285.4765625 808.203125 C286.49363281 807.40132812 287.51070312 806.59953125 288.55859375 805.7734375 C294.4116424 801.06755289 299.96445753 796.09272208 305.45703125 790.9765625 C307.67482161 788.91571771 309.94675188 786.93088272 312.2421875 784.95703125 C317.04940613 780.76702872 321.54228435 776.28393601 326.0390625 771.765625 C326.85052734 770.95802734 327.66199219 770.15042969 328.49804688 769.31835938 C333.36590871 764.44263981 338.00404866 759.44227423 342.4765625 754.203125 C343.3221875 753.23890625 344.1678125 752.2746875 345.0390625 751.28125 C364.36035429 728.86359734 381.29804857 704.17126933 395.4765625 678.203125 C396.19489258 676.89190674 396.19489258 676.89190674 396.92773438 675.55419922 C419.64696516 633.78656266 435.86315281 588.1858769 443.4765625 541.203125 C443.647323 540.16983063 443.647323 540.16983063 443.8215332 539.11566162 C447.54275209 516.45741744 448.94065869 494.10174967 448.9140625 471.140625 C448.91419342 469.9740033 448.91432434 468.80738159 448.91445923 467.60540771 C448.87247451 446.8106905 447.57338113 426.17483005 444.6640625 405.578125 C444.49302002 404.36141113 444.32197754 403.14469727 444.14575195 401.89111328 C442.67077718 391.81046472 440.68430091 381.93573839 438.19482422 372.05957031 C437.41631859 368.96354179 436.66779822 365.86090349 435.91796875 362.7578125 C421.42673095 303.82507343 393.39960805 248.52207012 355.4765625 201.203125 C354.68121094 200.19636719 353.88585937 199.18960938 353.06640625 198.15234375 C348.35995363 192.28380407 343.37450358 186.72418788 338.25 181.22265625 C336.17937538 178.9941122 334.18383965 176.71160618 332.19921875 174.40625 C328.17325286 169.78723173 323.88122957 165.46080641 319.5390625 161.140625 C318.39920898 159.9949707 318.39920898 159.9949707 317.23632812 158.82617188 C312.47925938 154.07722793 307.57783292 149.57766494 302.4765625 145.203125 C301.42834687 144.27755773 300.38139471 143.35055686 299.3359375 142.421875 C276.84557869 122.65346331 251.74166326 105.54377608 225.4765625 91.203125 C224.60241699 90.72423828 223.72827148 90.24535156 222.82763672 89.75195312 C176.94657301 64.79525074 127.3448367 48.59356203 75.6640625 41.515625 C74.87659637 41.40685028 74.08913025 41.29807556 73.27780151 41.18600464 C54.84661072 38.66020706 36.69151228 37.99707815 18.1015625 38.015625 C16.98584869 38.01622925 15.87013489 38.0168335 14.72061157 38.01745605 C-1.12670402 38.04079001 -16.77753099 38.26586421 -32.5234375 40.203125 Z " fill="#F46464" transform="translate(481.5234375,29.796875)"/>
<path d="M0 0 C1.65072028 -0.00573832 1.65072028 -0.00573832 3.33478844 -0.01159257 C7.02395087 -0.0219146 10.71295742 -0.01793176 14.40213013 -0.01396179 C17.04697689 -0.01830891 19.69181221 -0.02342772 22.33665466 -0.02944946 C28.77818946 -0.04219592 35.21968258 -0.04398993 41.66122787 -0.0416492 C46.90265724 -0.03986451 52.14407399 -0.04161895 57.38550186 -0.04587364 C58.13219225 -0.04646883 58.87888264 -0.04706402 59.64820001 -0.04767724 C61.16532611 -0.04888905 62.68245221 -0.05010319 64.1995783 -0.05131962 C78.42915364 -0.0621966 92.65870528 -0.06003292 106.88828196 -0.05393478 C119.87807293 -0.04877505 132.86778869 -0.05999577 145.85756479 -0.07903299 C159.21458567 -0.09845718 172.57157107 -0.10665878 185.92860615 -0.10290974 C193.41961141 -0.1010034 200.9105528 -0.10342892 208.40154648 -0.11762428 C214.78473198 -0.12959816 221.1678144 -0.13087686 227.55100147 -0.11883412 C230.80162999 -0.11298491 234.05203373 -0.11339239 237.30265617 -0.12383652 C250.57249441 -0.16337436 263.16945187 0.01883043 276.09793091 3.26069641 C276.09793091 3.92069641 276.09793091 4.58069641 276.09793091 5.26069641 C276.82109497 5.51721985 277.54425903 5.77374329 278.28933716 6.03804016 C289.3865666 10.86896202 295.58747404 20.38283735 300.33621216 31.02241516 C302.27616087 36.72287983 302.24178282 42.44943799 302.22935867 48.39439964 C302.23141131 49.30895935 302.23346394 50.22351906 302.23557878 51.1657927 C302.24124862 54.24084693 302.23979154 57.31585638 302.2383728 60.39091492 C302.24095643 62.61365963 302.24396958 64.83640387 302.2473762 67.05914748 C302.25544945 73.17559707 302.25723595 79.29203493 302.25797367 85.40848923 C302.25963369 91.32478293 302.26595124 97.24107052 302.27205208 103.15736104 C302.28810449 119.00523351 302.29401409 134.853105 302.29880083 150.70098413 C302.30113711 158.19738487 302.30473975 165.69378485 302.30849621 173.19018499 C302.32132981 198.84999147 302.33205013 224.50979754 302.33549881 250.16960716 C302.33572044 251.78003064 302.33594223 253.39045412 302.33616416 255.0008776 C302.3363848 256.61518537 302.33660528 258.22949313 302.33682561 259.8438009 C302.33726816 263.08237545 302.33771528 266.32094999 302.33816528 269.55952454 C302.33832937 270.76398977 302.33832937 270.76398977 302.33849677 271.99278763 C302.34212878 298.03925921 302.35805521 324.08570297 302.38135565 350.1321639 C302.4059445 377.66919334 302.41967117 405.20620688 302.42086673 432.74324763 C302.42103818 435.76523439 302.42125361 438.78722116 302.42150116 441.80920792 C302.42155693 442.55330764 302.4216127 443.29740736 302.42167016 444.06405556 C302.42282129 456.0439883 302.43384833 468.02389252 302.44838822 480.00381562 C302.46274517 492.04098123 302.46599469 504.07811022 302.45794824 516.11528204 C302.45403324 522.637709 302.45501284 529.16003985 302.46900558 535.68245506 C302.48169314 541.65092136 302.48059232 547.61921882 302.46841487 553.58768471 C302.46644896 555.7491424 302.4695773 557.91061185 302.47825924 560.072053 C302.48930246 563.00667831 302.48189805 565.94070255 302.46986771 568.8753109 C302.4812605 570.1383274 302.4812605 570.1383274 302.49288344 571.42685938 C302.38973523 583.05706445 296.1214725 594.05480161 288.09793091 602.26069641 C284.86067343 604.7475962 281.52737251 607.04763488 278.09793091 609.26069641 C276.98418091 610.04380188 276.98418091 610.04380188 275.84793091 610.84272766 C268.57466498 614.59300541 260.62245279 614.55050186 252.60922241 614.52139282 C251.48208352 614.52521837 250.35494462 614.52904392 249.19365001 614.53298539 C245.43285447 614.54326932 241.67221292 614.53933202 237.91140747 614.53535461 C235.20886293 614.53861147 232.50632684 614.54482299 229.80378723 614.55084229 C223.23601132 614.56356189 216.66827634 614.56538661 210.10049018 614.56304202 C204.76321431 614.56125656 199.42595084 614.56301336 194.08867645 614.56726646 C192.94783448 614.56815925 192.94783448 614.56815925 191.78394519 614.56907007 C190.23877265 614.57028184 188.69360011 614.57149598 187.14842758 614.57271244 C172.67500319 614.58357625 158.20160214 614.58143028 143.72817644 614.5753276 C130.48541768 614.57015268 117.24273235 614.58143109 103.99998811 614.60042582 C90.39545279 614.61978978 76.79095223 614.62806319 63.18640304 614.62430257 C55.55103495 614.6223892 47.91572946 614.62489179 40.28037262 614.63901711 C33.78459061 614.65091309 27.28890979 614.65235547 20.79312643 614.64022694 C17.47903196 614.63432723 14.16516152 614.63488839 10.85107231 614.64522934 C7.26010968 614.6556287 3.66964897 614.64765073 0.07870483 614.63491821 C-0.97060266 614.6422925 -2.01991016 614.64966678 -3.10101485 614.65726453 C-8.23211492 614.61883992 -11.70267756 614.54119868 -15.90206909 611.26069641 C-17.47493853 610.66956833 -19.05879549 610.106891 -20.65206909 609.57319641 C-32.03556336 605.07392527 -38.79836497 595.26730345 -43.77706909 584.44819641 C-45.92066136 578.37468498 -46.04688457 572.54598588 -46.03349686 566.18501854 C-46.03554949 565.27672234 -46.03760212 564.36842613 -46.03971696 563.4326058 C-46.04538648 560.37881895 -46.04392976 557.3250772 -46.04251099 554.27128601 C-46.04509465 552.06376647 -46.04810781 549.85624739 -46.05151439 547.64872897 C-46.0595875 541.57420653 -46.06137413 535.49969592 -46.06211185 529.42516875 C-46.06377193 523.54919858 -46.0700896 517.67323456 -46.07619027 511.79726759 C-46.09224377 496.05579108 -46.09815277 480.31431554 -46.10293902 464.57283232 C-46.10527557 457.12494045 -46.10887829 449.67704935 -46.11263439 442.22915809 C-46.12546921 416.73026918 -46.13618855 391.2313807 -46.13963699 365.73248863 C-46.13985863 364.13207433 -46.14008041 362.53166003 -46.14030235 360.93124572 C-46.14052298 359.32698511 -46.14074347 357.72272449 -46.14096379 356.11846387 C-46.14140634 352.90008696 -46.14185346 349.68171004 -46.14230347 346.46333313 C-46.14241286 345.66536387 -46.14252225 344.86739462 -46.14263495 344.04524447 C-46.14626542 318.17223735 -46.16218545 292.29925825 -46.18549383 266.42626186 C-46.21009638 239.0666398 -46.22381003 211.70703375 -46.22500491 184.34740031 C-46.22517636 181.34331615 -46.22539179 178.33923201 -46.22563934 175.33514786 C-46.225723 174.22562699 -46.225723 174.22562699 -46.22580834 173.09369156 C-46.2269584 161.19637399 -46.23797654 149.29908521 -46.2525264 137.40177737 C-46.26690115 125.4407166 -46.27012285 113.47969269 -46.26208642 101.51862566 C-46.25817763 95.04025871 -46.25912087 88.5619885 -46.27314377 82.08363342 C-46.28586855 76.15073242 -46.28469748 70.21800102 -46.27255306 64.2851003 C-46.27059362 62.14106794 -46.27368585 59.99702363 -46.28239742 57.85300808 C-46.34650383 41.0063948 -45.69190199 26.66542791 -33.53878784 13.74897766 C-23.37467656 4.18554481 -13.89814154 -0.05119172 0 0 Z M-11.90206909 75.26069641 C-11.90206909 214.52069641 -11.90206909 353.78069641 -11.90206909 497.26069641 C80.49793091 497.26069641 172.89793091 497.26069641 268.09793091 497.26069641 C268.09793091 358.00069641 268.09793091 218.74069641 268.09793091 75.26069641 C175.69793091 75.26069641 83.29793091 75.26069641 -11.90206909 75.26069641 Z " fill="#CECBDF" transform="translate(371.9020690917969,192.7393035888672)"/>
<path d="M0 0 C35.97 0 71.94 0 109 0 C109 10.89 109 21.78 109 33 C73.03 33 37.06 33 0 33 C0 22.11 0 11.22 0 0 Z " fill="#1B212D" transform="translate(446,726)"/>
<path d="M0 0 C39.6 0 79.2 0 120 0 C120 4.62 120 9.24 120 14 C80.4 14 40.8 14 0 14 C0 9.38 0 4.76 0 0 Z " fill="#252A36" transform="translate(440,225)"/>
<path d="M0 0 C4.36675424 0.10321419 6.87566028 1.56305024 10.25 4.375 C12.918947 8.3784205 13.08267518 11.66749972 12.25 16.375 C9.875 19.4375 9.875 19.4375 7.25 21.375 C6.59 21.375 5.93 21.375 5.25 21.375 C5.25 22.035 5.25 22.695 5.25 23.375 C-2.73992213 24.1583257 -2.73992213 24.1583257 -6.8125 21 C-8.75 18.375 -8.75 18.375 -8.75 16.375 C-9.41 16.375 -10.07 16.375 -10.75 16.375 C-11.53693051 8.34830879 -11.53693051 8.34830879 -8.375 4.4375 C-7.50875 3.756875 -6.6425 3.07625 -5.75 2.375 C-3.75 0.375 -3.75 0.375 0 0 Z " fill="#252A36" transform="translate(598.75,220.625)"/>
</svg>
